<?xml version="1.0" encoding="utf-8"?>
<!-- Generator: Adobe Illustrator 16.0.0, SVG Export Plug-In . SVG Version: 6.00 Build 0)  -->
<!DOCTYPE svg PUBLIC "-//W3C//DTD SVG 1.1//EN" "http://www.w3.org/Graphics/SVG/1.1/DTD/svg11.dtd">
<svg version="1.1" id="Layer_1" xmlns="http://www.w3.org/2000/svg" xmlns:xlink="http://www.w3.org/1999/xlink" x="0px" y="0px"
	 width="507.994px" height="251.024px" viewBox="0 0 507.994 251.024" enable-background="new 0 0 507.994 251.024"
	 xml:space="preserve">
<g>
	<path fill-rule="evenodd" clip-rule="evenodd" fill="#FFFFFF" d="M292.923,172.121c2.765-2.688,5.071-4.932,7.466-7.26
		c0.934,0.268,1.502,1.237,2.234,1.97c22.928,22.899,45.855,45.801,68.742,68.742c3.199,3.208,6.828,5.159,11.443,5.051
		c3.463-0.081,6.508-1.214,9.109-3.499c0.736-0.646,1.436-1.332,2.127-2.023c32.746-32.743,65.484-65.496,98.252-98.219
		c2.861-2.858,4.99-5.995,5.291-10.151c0.34-4.695-1.256-8.601-4.578-11.91c-10.408-10.361-20.777-20.76-31.162-31.144
		c-22.5-22.5-44.996-44.999-67.498-67.497c-0.762-0.761-1.51-1.541-2.318-2.249c-5.609-4.905-13.756-4.843-19.279,0.141
		c-0.654,0.589-1.256,1.236-1.879,1.859c-31.492,31.504-62.98,63.014-94.48,94.512c-44.169,44.165-88.356,88.313-132.509,132.494
		c-3.919,3.922-8.407,6.655-13.9,7.641c-7.596,1.362-14.352-0.512-20.327-5.313c-0.989-0.795-1.883-1.712-2.783-2.61
		c-32.888-32.88-65.757-65.776-98.668-98.632c-4.297-4.292-7.209-9.203-7.982-15.294c-0.973-7.657,1.25-14.296,6.317-20.041
		c0.453-0.513,0.953-0.984,1.438-1.468c33.09-33.092,66.192-66.172,99.26-99.287c5.008-5.016,10.896-7.862,18.027-7.926
		c6.671-0.059,12.483,2.188,17.295,6.808c3.671,3.525,7.221,7.178,10.822,10.776c18.974,18.963,37.944,37.928,56.924,56.885
		c0.689,0.689,1.456,1.303,2.237,1.997c-2.667,2.489-5.121,4.779-7.969,7.438c-0.452-0.589-1.021-1.53-1.775-2.286
		C180.796,59.599,158.768,37.6,136.77,15.57c-2.405-2.409-5.014-4.314-8.449-4.958c-4.761-0.893-8.901,0.313-12.512,3.47
		c-0.736,0.643-1.407,1.361-2.099,2.053C80.963,48.878,48.229,81.633,15.456,114.35c-3.201,3.195-5.2,6.792-5.119,11.414
		c0.059,3.367,1.198,6.309,3.286,8.909c0.427,0.532,0.92,1.015,1.404,1.499c33.296,33.302,66.599,66.597,99.886,99.906
		c3.154,3.157,6.88,4.722,11.351,4.527c3.359-0.146,6.286-1.337,8.785-3.57c0.802-0.717,1.551-1.493,2.312-2.254
		c24.647-24.645,49.296-49.285,73.937-73.936c24.983-24.995,49.947-50.01,74.938-74.997c25.895-25.889,51.832-51.731,77.699-77.646
		c5.316-5.327,11.498-8.356,19.1-8.196c6.793,0.144,12.52,2.757,17.299,7.541c11.213,11.217,22.432,22.429,33.646,33.643
		c22.016,22.014,44.02,44.039,66.055,66.034c3.846,3.838,6.557,8.243,7.518,13.646c1.41,7.926-0.553,14.924-5.771,21.024
		c-0.635,0.743-1.352,1.417-2.043,2.109c-32.883,32.885-65.779,65.754-98.629,98.673c-3.689,3.698-7.809,6.542-12.93,7.665
		c-8.775,1.924-16.535-0.208-23.006-6.429c-5.715-5.495-11.246-11.183-16.854-16.79c-17.73-17.729-35.457-35.46-53.196-53.18
		C294.5,173.322,293.767,172.814,292.923,172.121z"/>
</g>
</svg>
